<svg width="107" height="20" viewBox="0 0 107 20" fill="none" xmlns="http://www.w3.org/2000/svg">
<path d="M2.23517e-06 14.36V0.22H9.5V1.8H1.74V7.1H8.52V8.7H1.74V14.36H2.23517e-06ZM11.6227 14.36V0.22H13.3227V14.36H11.6227ZM20.6877 19.08C19.8743 19.08 19.0877 18.9667 18.3277 18.74C17.581 18.5133 16.9077 18.12 16.3077 17.56L17.0477 16.22C17.5677 16.6333 18.121 16.96 18.7077 17.2C19.3077 17.44 19.9343 17.56 20.5877 17.56C21.681 17.56 22.461 17.24 22.9277 16.6C23.4077 15.9733 23.6477 15.1733 23.6477 14.2V12.94C23.4077 13.3 23.101 13.6 22.7277 13.84C22.3677 14.0667 21.9677 14.24 21.5277 14.36C21.0877 14.4667 20.6343 14.52 20.1677 14.52C19.1277 14.52 18.3077 14.3133 17.7077 13.9C17.1077 13.4867 16.681 12.9133 16.4277 12.18C16.1743 11.4467 16.0477 10.6 16.0477 9.64V3.82H17.7477V9.16C17.7477 9.64 17.7743 10.1133 17.8277 10.58C17.8943 11.0333 18.021 11.4467 18.2077 11.82C18.3943 12.18 18.6677 12.4733 19.0277 12.7C19.3877 12.9133 19.8677 13.02 20.4677 13.02C21.2277 13.02 21.8343 12.8333 22.2877 12.46C22.7543 12.0867 23.0877 11.5867 23.2877 10.96C23.501 10.3333 23.6077 9.64 23.6077 8.88V3.82H25.3077V14.36C25.3077 15.12 25.2077 15.7933 25.0077 16.38C24.8077 16.9667 24.5077 17.46 24.1077 17.86C23.7077 18.26 23.221 18.56 22.6477 18.76C22.0877 18.9733 21.4343 19.08 20.6877 19.08ZM33.8719 14.36V0.22H43.3719V1.8H35.6119V7.1H42.3919V8.7H35.6119V14.36H33.8719ZM45.4945 14.36V3.82H47.1345L47.2145 5.46C47.4812 5.04667 47.7879 4.71333 48.1345 4.46C48.4945 4.20667 48.8879 4.02 49.3145 3.9C49.7545 3.76667 50.2279 3.7 50.7345 3.7C50.8279 3.7 50.9145 3.7 50.9945 3.7C51.0879 3.7 51.1812 3.7 51.2745 3.7V5.3H50.6545C49.8279 5.3 49.1545 5.48 48.6345 5.84C48.1279 6.18667 47.7612 6.66 47.5345 7.26C47.3079 7.84667 47.1945 8.5 47.1945 9.22V14.36H45.4945ZM53.0055 14.36V3.82H54.7055V14.36H53.0055ZM53.8455 2.26C53.4988 2.26 53.2188 2.15333 53.0055 1.94C52.8055 1.72667 52.7055 1.45333 52.7055 1.12C52.7055 0.786666 52.8121 0.52 53.0255 0.32C53.2388 0.106666 53.5121 -4.76837e-07 53.8455 -4.76837e-07C54.1521 -4.76837e-07 54.4188 0.106666 54.6455 0.32C54.8855 0.533333 55.0055 0.8 55.0055 1.12C55.0055 1.45333 54.8921 1.72667 54.6655 1.94C54.4388 2.15333 54.1655 2.26 53.8455 2.26ZM61.9905 14.48C60.8705 14.48 59.9438 14.2533 59.2105 13.8C58.4771 13.3333 57.9305 12.6933 57.5705 11.88C57.2105 11.0667 57.0305 10.14 57.0305 9.1C57.0305 8.04667 57.2171 7.12 57.5905 6.32C57.9771 5.50667 58.5371 4.86667 59.2705 4.4C60.0038 3.93333 60.9038 3.7 61.9705 3.7C62.7971 3.7 63.5038 3.86 64.0905 4.18C64.6905 4.48667 65.1838 4.9 65.5705 5.42C65.9571 5.94 66.2371 6.51333 66.4105 7.14C66.5838 7.75333 66.6571 8.37333 66.6305 9C66.6171 9.12 66.6038 9.24 66.5905 9.36C66.5905 9.48 66.5838 9.6 66.5705 9.72H58.7505C58.8038 10.3333 58.9571 10.8867 59.2105 11.38C59.4638 11.8733 59.8238 12.2667 60.2905 12.56C60.7571 12.84 61.3371 12.98 62.0305 12.98C62.3771 12.98 62.7238 12.94 63.0705 12.86C63.4305 12.7667 63.7505 12.6133 64.0305 12.4C64.3238 12.1867 64.5305 11.9 64.6505 11.54H66.3905C66.2305 12.22 65.9305 12.78 65.4905 13.22C65.0505 13.6467 64.5238 13.9667 63.9105 14.18C63.2971 14.38 62.6571 14.48 61.9905 14.48ZM58.7905 8.24H64.8905C64.8771 7.64 64.7438 7.11333 64.4905 6.66C64.2371 6.20667 63.8905 5.85333 63.4505 5.6C63.0238 5.34667 62.5105 5.22 61.9105 5.22C61.2571 5.22 60.7038 5.36 60.2505 5.64C59.8105 5.92 59.4705 6.28667 59.2305 6.74C58.9905 7.19333 58.8438 7.69333 58.7905 8.24ZM68.9453 14.36V3.82H70.5853L70.6653 5.42C70.9053 5.03333 71.212 4.71333 71.5853 4.46C71.9586 4.20667 72.3653 4.02 72.8053 3.9C73.2586 3.76667 73.6986 3.7 74.1253 3.7C75.152 3.7 75.952 3.91333 76.5253 4.34C77.112 4.76667 77.5253 5.34667 77.7653 6.08C78.0186 6.8 78.1453 7.62 78.1453 8.54V14.36H76.4453V9C76.4453 8.50667 76.412 8.03333 76.3453 7.58C76.292 7.12667 76.172 6.72 75.9853 6.36C75.812 6 75.5586 5.72 75.2253 5.52C74.892 5.30667 74.4453 5.2 73.8853 5.2C73.192 5.2 72.5986 5.39333 72.1053 5.78C71.6253 6.16667 71.2586 6.68667 71.0053 7.34C70.7653 7.99333 70.6453 8.72667 70.6453 9.54V14.36H68.9453ZM85.0317 14.48C83.9784 14.48 83.1117 14.2467 82.4317 13.78C81.7517 13.3 81.2451 12.66 80.9117 11.86C80.5784 11.0467 80.4117 10.1333 80.4117 9.12C80.4117 8.10667 80.5784 7.19333 80.9117 6.38C81.2451 5.55333 81.7584 4.9 82.4517 4.42C83.1451 3.94 84.0317 3.7 85.1117 3.7C85.5251 3.7 85.9384 3.75333 86.3517 3.86C86.7784 3.95333 87.1784 4.10667 87.5517 4.32C87.9251 4.52 88.2451 4.79333 88.5117 5.14V0.22H90.2117V14.36H88.5917L88.5117 12.78C88.2717 13.18 87.9651 13.5067 87.5917 13.76C87.2317 14 86.8317 14.18 86.3917 14.3C85.9517 14.42 85.4984 14.48 85.0317 14.48ZM85.2717 12.98C85.9784 12.98 86.5717 12.8 87.0517 12.44C87.5317 12.08 87.8984 11.6 88.1517 11C88.4051 10.4 88.5317 9.74667 88.5317 9.04C88.5317 8.30667 88.4051 7.65333 88.1517 7.08C87.9117 6.50667 87.5517 6.05333 87.0717 5.72C86.5917 5.38667 85.9851 5.22 85.2517 5.22C84.4917 5.22 83.8784 5.39333 83.4117 5.74C82.9584 6.08667 82.6251 6.56 82.4117 7.16C82.2117 7.74667 82.1117 8.40667 82.1117 9.14C82.1117 9.67333 82.1651 10.1733 82.2717 10.64C82.3917 11.0933 82.5717 11.5 82.8117 11.86C83.0651 12.2067 83.3917 12.48 83.7917 12.68C84.1917 12.88 84.6851 12.98 85.2717 12.98ZM92.932 14.36V0.22H94.632V14.36H92.932ZM101.997 19.08C101.184 19.08 100.397 18.9667 99.637 18.74C98.8904 18.5133 98.217 18.12 97.617 17.56L98.357 16.22C98.877 16.6333 99.4304 16.96 100.017 17.2C100.617 17.44 101.244 17.56 101.897 17.56C102.99 17.56 103.77 17.24 104.237 16.6C104.717 15.9733 104.957 15.1733 104.957 14.2V12.94C104.717 13.3 104.41 13.6 104.037 13.84C103.677 14.0667 103.277 14.24 102.837 14.36C102.397 14.4667 101.944 14.52 101.477 14.52C100.437 14.52 99.617 14.3133 99.017 13.9C98.417 13.4867 97.9904 12.9133 97.737 12.18C97.4837 11.4467 97.357 10.6 97.357 9.64V3.82H99.057V9.16C99.057 9.64 99.0837 10.1133 99.137 10.58C99.2037 11.0333 99.3304 11.4467 99.517 11.82C99.7037 12.18 99.977 12.4733 100.337 12.7C100.697 12.9133 101.177 13.02 101.777 13.02C102.537 13.02 103.144 12.8333 103.597 12.46C104.064 12.0867 104.397 11.5867 104.597 10.96C104.81 10.3333 104.917 9.64 104.917 8.88V3.82H106.617V14.36C106.617 15.12 106.517 15.7933 106.317 16.38C106.117 16.9667 105.817 17.46 105.417 17.86C105.017 18.26 104.53 18.56 103.957 18.76C103.397 18.9733 102.744 19.08 101.997 19.08Z" fill="#05A4FF"/>
</svg>
