<svg xmlns="http://www.w3.org/2000/svg" viewBox="0 11.5 273.1000061035156 49.04999923706055" data-asc="0.97" width="273.1000061035156" height="49.04999923706055"><defs/><g fill="#4173fd"><g transform="translate(0, 0)"><path d="M0 48.50L0 13.15L24.70 13.15L24.70 18.85L6.25 18.85L6.25 29.40L22.05 29.40L22.05 35.10L6.25 35.10L6.25 48.50L0 48.50ZM29.10 48.50L29.10 13.15L35.20 13.15L35.20 48.50L29.10 48.50ZM52.75 60.55Q49.70 60.55 46.83 59.73Q43.95 58.90 41.50 56.95L43.70 52.05Q45.40 53.40 47.50 54.17Q49.60 54.95 52.10 54.95Q56.05 54.95 57.88 52.95Q59.70 50.95 59.70 47.50L59.70 45.55Q58.80 46.70 57.50 47.45Q56.20 48.20 54.70 48.55Q53.20 48.90 51.65 48.90Q47.80 48.90 45.53 47.33Q43.25 45.75 42.25 42.98Q41.25 40.20 41.25 36.65L41.25 22.15L47.30 22.15L47.30 35.30Q47.30 36.70 47.50 38.15Q47.70 39.60 48.30 40.80Q48.90 42 50.08 42.73Q51.25 43.45 53.20 43.45Q55.75 43.45 57.15 42.20Q58.55 40.95 59.08 38.95Q59.60 36.95 59.60 34.70L59.60 22.15L65.70 22.15L65.70 46Q65.70 49.35 65 52.02Q64.30 54.70 62.75 56.60Q61.20 58.50 58.75 59.52Q56.30 60.55 52.75 60.55ZM86.50 48.50L86.50 13.15L111.20 13.15L111.20 18.85L92.75 18.85L92.75 29.40L108.55 29.40L108.55 35.10L92.75 35.10L92.75 48.50L86.50 48.50ZM115.60 48.50L115.60 22.15L121.15 22.15L121.50 25.60Q122.50 24.10 123.78 23.27Q125.05 22.45 126.53 22.10Q128 21.75 129.50 21.75Q130.05 21.75 130.53 21.75Q131 21.75 131.30 21.80L131.30 27.60L129.70 27.60Q127.10 27.60 125.30 28.60Q123.50 29.60 122.60 31.45Q121.70 33.30 121.70 36L121.70 48.50L115.60 48.50ZM134.90 48.50L134.90 22.15L141.00 22.15L141.00 48.50L134.90 48.50M137.95 19.10Q136.20 19.10 135.15 18.05Q134.10 17 134.10 15.30Q134.10 13.65 135.20 12.57Q136.30 11.50 137.95 11.50Q139.55 11.50 140.70 12.55Q141.85 13.60 141.85 15.30Q141.85 17 140.75 18.05Q139.65 19.10 137.95 19.10ZM158.70 48.85Q154.60 48.85 151.73 47.15Q148.85 45.45 147.38 42.42Q145.90 39.40 145.90 35.40Q145.90 31.40 147.43 28.32Q148.95 25.25 151.83 23.50Q154.70 21.75 158.75 21.75Q161.75 21.75 164.00 22.82Q166.25 23.90 167.78 25.75Q169.30 27.60 170.05 29.95Q170.80 32.30 170.75 34.90Q170.70 35.50 170.65 36.08Q170.60 36.65 170.50 37.30L152.00 37.30Q152.15 39.05 152.93 40.50Q153.70 41.95 155.13 42.80Q156.55 43.65 158.70 43.65Q159.95 43.65 161.10 43.33Q162.25 43 163.13 42.35Q164.00 41.70 164.30 40.70L170.40 40.70Q169.75 43.55 168.00 45.35Q166.25 47.15 163.83 48Q161.40 48.85 158.70 48.85M152.10 32.75L164.80 32.75Q164.80 31.10 164.05 29.75Q163.30 28.40 161.93 27.63Q160.55 26.85 158.60 26.85Q156.50 26.85 155.10 27.70Q153.70 28.55 152.95 29.90Q152.20 31.25 152.10 32.75ZM175.60 48.50L175.60 22.15L181.30 22.15L181.65 25.50Q182.70 24.10 184.10 23.30Q185.50 22.50 187.05 22.13Q188.60 21.75 189.95 21.75Q193.70 21.75 195.88 23.40Q198.05 25.05 198.95 27.80Q199.85 30.55 199.85 33.95L199.85 48.50L193.75 48.50L193.75 34.95Q193.75 33.50 193.55 32.13Q193.35 30.75 192.78 29.65Q192.20 28.55 191.15 27.90Q190.10 27.25 188.35 27.25Q186.20 27.25 184.70 28.40Q183.20 29.55 182.45 31.47Q181.70 33.40 181.70 35.85L181.70 48.50L175.60 48.50ZM216.35 48.85Q212.35 48.85 209.75 47.02Q207.15 45.20 205.88 42.15Q204.60 39.10 204.60 35.35Q204.60 31.45 205.95 28.38Q207.30 25.30 210.00 23.52Q212.70 21.75 216.75 21.75Q218.25 21.75 219.68 22.07Q221.10 22.40 222.38 23.07Q223.65 23.75 224.50 24.85L224.50 13.15L230.60 13.15L230.60 48.50L224.70 48.50L224.60 45.20Q223.65 46.45 222.38 47.25Q221.10 48.05 219.55 48.45Q218.00 48.85 216.35 48.85M217.50 43.35Q219.90 43.35 221.45 42.23Q223.00 41.10 223.78 39.23Q224.55 37.35 224.55 35.25Q224.55 33.05 223.78 31.25Q223.00 29.45 221.45 28.35Q219.90 27.25 217.50 27.25Q214.95 27.25 213.48 28.40Q212.00 29.55 211.33 31.43Q210.65 33.30 210.65 35.45Q210.65 37.05 211.03 38.48Q211.40 39.90 212.20 41Q213.00 42.10 214.30 42.73Q215.60 43.35 217.50 43.35ZM236.50 48.50L236.50 13.15L242.60 13.15L242.60 48.50L236.50 48.50ZM260.15 60.55Q257.10 60.55 254.23 59.73Q251.35 58.90 248.90 56.95L251.10 52.05Q252.80 53.40 254.90 54.17Q257.00 54.95 259.50 54.95Q263.45 54.95 265.28 52.95Q267.10 50.95 267.10 47.50L267.10 45.55Q266.20 46.70 264.90 47.45Q263.60 48.20 262.10 48.55Q260.60 48.90 259.05 48.90Q255.20 48.90 252.93 47.33Q250.65 45.75 249.65 42.98Q248.65 40.20 248.65 36.65L248.65 22.15L254.70 22.15L254.70 35.30Q254.70 36.70 254.90 38.15Q255.10 39.60 255.70 40.80Q256.30 42 257.48 42.73Q258.65 43.45 260.60 43.45Q263.15 43.45 264.55 42.20Q265.95 40.95 266.48 38.95Q267.00 36.95 267.00 34.70L267.00 22.15L273.10 22.15L273.10 46Q273.10 49.35 272.40 52.02Q271.70 54.70 270.15 56.60Q268.60 58.50 266.15 59.52Q263.70 60.55 260.15 60.55Z"/></g></g></svg>