<svg xmlns="http://www.w3.org/2000/svg" xmlns:xlink="http://www.w3.org/1999/xlink" xmlns:inkscape="http://www.inkscape.org/namespaces/inkscape" version="1.1" width="1563" height="1563" viewBox="0 0 1563 1563">
<defs>
<clipPath id="clip_1">
<path transform="matrix(1,0,0,-1,0,1563)" d="M0 1563H1563V0H0Z"/>
</clipPath>
</defs>
<g inkscape:groupmode="layer" inkscape:label="Layer 1">
<g clip-path="url(#clip_1)">
<path transform="matrix(1,0,0,-1,1151.5651,240.12378)" d="M0 0V-149.839C-71.678-149.855-143.243-162.692-210.101-187.951-400.049-259.714-542.053-425.137-584.388-624.099-587.723-639.776-591.011-656.361-591.54-672.323H-403.915C-369.753-480.849-195.394-334.306 0-336.161V-486.001C-113.325-484.337-218.985-563.907-250.167-672.323H6.515V-822.162H-598.055V-1082.752H-746.591L-746.645-709.403C-735.681-493.457-629.848-292.53-461.11-159.747-330.516-56.98-167.118-.056 0 0" fill="#4173fd"/>
<path transform="matrix(1,0,0,-1,0,1563)" d="M889.672 240.124H741.136V426.44599H889.672Z" fill="#4173fc"/>
</g>
</g>
</svg>
