<svg xmlns="http://www.w3.org/2000/svg" version="1.1" width="1563" height="1563" viewBox="0 0 1563 1563">
  <path d="M1151.565 240.124v149.839c-71.678.016-143.243 12.853-210.101 38.112-189.948 71.763-331.952 237.186-374.287 436.148-3.335 15.677-6.623 32.262-7.152 48.224H747.65c34.162-191.474 208.521-338.017 403.915-336.161v149.84c-113.325-1.664-218.985 77.906-250.167 186.321h256.682v149.839H553.51v260.59H404.974l-.054-373.349c10.964-215.946 116.797-416.873 285.535-549.656 130.594-102.767 293.992-159.691 461.11-159.747" fill="#4173fd"/>
  <path d="M889.672 1322.876H741.136v-186.322h148.536z" fill="#4173fc"/>
</svg>
